HIERARCHY
ROOT Hips
{
	OFFSET -0.001795 -0.223333 0.028219
	CHANNELS 6 Xposition Yposition Zposition Zrotation Yrotation Xrotation 
	JOINT LeftUpLeg
	{
		OFFSET 0.069520 -0.091406 -0.006815
		CHANNELS 3 Zrotation Yrotation Xrotation
		JOINT LeftLeg
		{
			OFFSET 0.034277 -0.375199 -0.004496
			CHANNELS 3 Zrotation Yrotation Xrotation
			JOINT LeftFoot
			{
				OFFSET -0.013596 -0.397961 -0.043693
				CHANNELS 3 Zrotation Yrotation Xrotation
				JOINT LeftToe
				{
					OFFSET 0.026358 -0.055791 0.119288
					CHANNELS 3 Zrotation Yrotation Xrotation
					End Site
					{
						OFFSET 0.000000 0.000000 0.000000
					}
				}
			}
		}
	}
	JOINT RightUpLeg
	{
		OFFSET -0.067670 -0.090522 -0.004320
		CHANNELS 3 Zrotation Yrotation Xrotation
		JOINT RightLeg
		{
			OFFSET -0.038290 -0.382569 -0.008850
			CHANNELS 3 Zrotation Yrotation Xrotation
			JOINT RightFoot
			{
				OFFSET 0.015774 -0.398415 -0.042312
				CHANNELS 3 Zrotation Yrotation Xrotation
				JOINT RightToe
				{
					OFFSET -0.025372 -0.048144 0.123348
					CHANNELS 3 Zrotation Yrotation Xrotation
					End Site
					{
						OFFSET 0.000000 0.000000 0.000000
					}
				}
			}
		}
	}
	JOINT Spine
	{
		OFFSET -0.002533 0.108963 -0.026696
		CHANNELS 3 Zrotation Yrotation Xrotation
		JOINT Spine1
		{
			OFFSET 0.005487 0.135180 0.001092
			CHANNELS 3 Zrotation Yrotation Xrotation
			JOINT Spine2
			{
				OFFSET 0.001457 0.052922 0.025425
				CHANNELS 3 Zrotation Yrotation Xrotation
				JOINT Neck
				{
					OFFSET -0.002778 0.213870 -0.042857
					CHANNELS 3 Zrotation Yrotation Xrotation
					JOINT Head
					{
						OFFSET 0.005152 0.064970 0.051349
						CHANNELS 3 Zrotation Yrotation Xrotation
						End Site
						{
							OFFSET 0.000000 0.000000 0.000000
						}
					}
				}
				JOINT LeftShoulder
				{
					OFFSET 0.078845 0.121749 -0.034090
					CHANNELS 3 Zrotation Yrotation Xrotation
					JOINT LeftArm
					{
						OFFSET 0.090977 0.030469 -0.008868
						CHANNELS 3 Zrotation Yrotation Xrotation
						JOINT LeftForeArm
						{
							OFFSET 0.259612 -0.012772 -0.027456
							CHANNELS 3 Zrotation Yrotation Xrotation
							JOINT LeftHand
							{
								OFFSET 0.249234 0.008986 -0.001171
								CHANNELS 3 Zrotation Yrotation Xrotation
								End Site
								{
									OFFSET 0.000000 0.000000 0.000000
								}
							}
						}
					}
				}
				JOINT RightShoulder
				{
					OFFSET -0.081759 0.118833 -0.038615
					CHANNELS 3 Zrotation Yrotation Xrotation
					JOINT RightArm
					{
						OFFSET -0.096012 0.032551 -0.009143
						CHANNELS 3 Zrotation Yrotation Xrotation
						JOINT RightForeArm
						{
							OFFSET -0.253742 -0.013329 -0.021401
							CHANNELS 3 Zrotation Yrotation Xrotation
							JOINT RightHand
							{
								OFFSET -0.255298 0.007772 -0.005559
								CHANNELS 3 Zrotation Yrotation Xrotation
								End Site
								{
									OFFSET 0.000000 0.000000 0.000000
								}
							}
						}
					}
				}
			}
		}
	}
}
MOTION
Frames: 15
Frame Time: 0.050000
0.000000 0.904139 0.000000 1.139875 -21.895526 -2.056374 -2.749292 -1.594114 -19.138233 -4.820369 1.130978 7.968419 5.280842 10.760111 11.676718 0.000000 0.000000 0.000000 3.134503 -1.160642 14.566363 2.389577 0.805799 16.749846 -0.916066 0.297336 -3.030173 0.000000 0.000000 0.000000 -5.658461 0.628676 13.974368 4.353836 -1.066886 -21.097904 2.979825 13.978378 27.532332 2.470253 0.600953 -28.632321 0.000000 0.000000 0.000000 -28.992698 -1.721722 -0.769440 -45.705486 -7.887870 -4.777173 -9.868256 -27.084799 3.747902 0.000000 0.000000 0.000000 18.739717 11.021473 4.929443 49.874170 22.105498 1.816682 9.582583 40.252988 5.418020 0.000000 0.000000 0.000000 
-0.016964 0.909628 0.049447 0.563894 -20.958991 -2.040228 -3.079485 -1.524564 -15.694006 -4.055723 0.966186 8.720715 4.994203 10.457274 7.015601 0.000000 0.000000 0.000000 2.535202 -0.896386 10.098994 4.405998 1.713752 30.301519 2.833958 1.687874 6.340606 0.000000 0.000000 0.000000 -6.779697 0.851033 15.004561 5.966204 -1.375893 -21.725314 2.481107 11.556780 26.857805 1.534835 0.840048 -28.576579 0.000000 0.000000 0.000000 -30.521646 0.341556 -1.681218 -44.385034 -9.151371 -4.433429 -9.894638 -26.094257 3.661856 0.000000 0.000000 0.000000 17.777496 10.874494 4.394978 51.371376 18.201327 0.323241 14.445262 42.468527 7.457908 0.000000 0.000000 0.000000 
-0.033201 0.916322 0.096502 1.016644 -21.388494 -3.026740 -3.568199 -1.415079 -12.831704 -4.232015 1.194781 11.392454 5.168261 10.899890 4.600807 0.000000 0.000000 0.000000 -1.708874 -0.036925 2.617540 11.566098 0.719029 45.472952 5.061679 -1.844071 20.477501 0.000000 0.000000 0.000000 -6.870676 0.981963 16.467568 5.912120 -1.383481 -21.724513 1.982260 10.830314 25.605087 0.502906 1.295385 -28.280261 0.000000 0.000000 0.000000 -30.974086 0.040844 -1.271574 -43.461275 -10.228400 -3.949971 -9.311029 -25.995452 3.502403 0.000000 0.000000 0.000000 17.741893 9.179492 3.266549 51.769244 15.900652 -0.466685 16.153616 39.907695 7.403946 0.000000 0.000000 0.000000 
-0.049694 0.920908 0.140886 0.264365 -21.692566 -4.050344 -2.665098 -0.906158 -7.812557 -4.702089 1.300142 10.852003 5.091647 10.976076 2.057624 0.000000 0.000000 0.000000 -2.905680 0.461719 -4.485697 16.229069 -0.755695 55.283020 1.989664 -9.336824 31.415959 0.000000 0.000000 0.000000 -6.299105 0.991236 18.032032 6.396150 -1.740490 -19.770383 0.890638 8.824106 23.651005 -0.129522 1.311397 -27.021010 0.000000 0.000000 0.000000 -30.301757 0.110617 -0.643191 -43.559317 -11.707398 -3.514556 -10.107881 -28.209568 4.096018 0.000000 0.000000 0.000000 19.047623 10.299753 3.312599 49.692019 14.521846 -0.799235 17.574231 39.865009 7.581053 0.000000 0.000000 0.000000 
-0.067205 0.923608 0.183017 -0.908995 -21.244655 -4.890483 -2.006038 -0.442721 -3.545920 -3.678678 1.038201 11.376327 4.795809 10.563329 -0.351457 0.000000 0.000000 0.000000 -4.150824 0.927496 -10.307141 18.499319 -2.179013 55.307407 -2.358578 -15.060566 34.417091 0.000000 0.000000 0.000000 -5.742026 1.029577 20.121579 7.349146 -1.784008 -21.573212 0.301361 6.321745 25.432900 0.259396 0.741475 -27.984527 0.000000 0.000000 0.000000 -31.756090 -0.325713 0.671365 -40.375346 -15.362868 -2.746358 -9.850114 -29.745162 4.349176 0.000000 0.000000 0.000000 18.689171 10.237143 2.740028 50.033715 13.598123 -1.252553 17.807374 38.506328 7.159874 0.000000 0.000000 0.000000 
-0.085027 0.923186 0.223766 -2.078134 -20.642235 -5.119308 -1.245957 -0.024069 -0.046126 -2.529766 0.725471 11.848387 4.543780 10.143362 -2.865774 0.000000 0.000000 0.000000 -4.171966 1.467110 -15.674243 17.842719 -2.220714 49.839812 -9.222050 -22.937466 16.591083 0.000000 0.000000 0.000000 -4.683264 0.890229 21.489568 7.663920 -1.742818 -22.587244 0.535162 3.310977 26.698441 -0.926002 1.003180 -29.308319 0.000000 0.000000 0.000000 -31.086901 -0.563515 1.979713 -40.146628 -19.437713 -1.883750 -7.337160 -32.547374 4.245827 0.000000 0.000000 0.000000 19.580053 10.737504 2.270511 48.020329 13.064641 -1.348025 17.975276 36.669946 6.535546 0.000000 0.000000 0.000000 
-0.103390 0.920114 0.263430 -2.529905 -18.692398 -5.367700 -0.474484 0.398563 3.478232 -2.052311 0.517645 11.485285 3.843657 8.348758 -5.397989 0.000000 0.000000 0.000000 -3.642230 1.976000 -19.683775 13.572587 -1.298899 34.457058 -12.641514 -28.536868 10.735602 0.000000 0.000000 0.000000 -4.428076 0.817586 22.397026 8.300840 -1.813655 -23.024092 0.232707 0.749076 27.059349 -1.045125 0.818343 -29.853950 0.000000 0.000000 0.000000 -30.754239 -0.971258 2.871249 -39.016747 -23.173661 -0.957556 -4.985871 -34.672655 3.927604 0.000000 0.000000 0.000000 19.298645 9.756578 1.393502 48.061399 10.955271 -2.117362 18.586668 34.979452 6.230181 0.000000 0.000000 0.000000 
-0.121697 0.914423 0.302984 -2.148379 -17.811784 -5.454817 -0.619250 0.691814 5.858228 -1.499170 0.377617 12.373753 3.665595 7.723502 -7.401482 0.000000 0.000000 0.000000 -2.738252 2.265647 -21.105885 7.848987 -0.480867 14.336858 -12.504008 -28.202287 19.842407 0.000000 0.000000 0.000000 -4.873029 0.879838 22.462929 9.182462 -2.019944 -22.923525 -0.251550 -0.705134 27.691629 -1.111358 0.694932 -30.587213 0.000000 0.000000 0.000000 -29.742044 -2.447617 4.228216 -38.427483 -26.230480 -0.141466 -1.122060 -36.884387 3.009311 0.000000 0.000000 0.000000 19.595931 9.197415 0.811356 47.856742 9.047106 -2.818158 18.231956 33.067100 5.671796 0.000000 0.000000 0.000000 
-0.140154 0.906545 0.343870 -2.232008 -16.933744 -4.631425 -0.192851 0.967779 8.136169 -0.941005 0.196984 12.136152 3.548573 7.112952 -9.735133 0.000000 0.000000 0.000000 -2.125680 2.553009 -22.578804 4.938033 -0.319137 2.552861 -3.478872 -16.355785 23.454525 0.000000 0.000000 0.000000 -4.222143 0.683564 22.058509 10.009131 -2.320051 -22.015995 -0.750369 -2.154747 26.542472 -1.323104 0.692082 -31.216244 0.000000 0.000000 0.000000 -30.163477 -2.241666 4.373784 -37.567546 -29.253235 0.745631 1.290885 -37.556456 2.291612 0.000000 0.000000 0.000000 19.585971 9.366538 0.617670 47.624871 7.325503 -3.272253 15.961003 30.558052 4.544347 0.000000 0.000000 0.000000 
-0.159959 0.897897 0.387167 -1.886790 -15.589640 -3.568237 -0.134567 1.147447 9.649804 -0.084290 -0.047868 12.689574 3.379189 6.225074 -11.032833 0.000000 0.000000 0.000000 -2.562545 2.644566 -23.961803 4.890543 -0.336606 1.544123 -0.829329 -12.518090 23.943996 0.000000 0.000000 0.000000 -4.139798 0.591106 21.610246 11.078446 -2.432827 -22.768859 -1.167327 -3.309320 26.533068 -0.283500 0.022875 -30.548154 0.000000 0.000000 0.000000 -31.017005 -3.070416 5.234185 -36.089248 -29.896062 0.616907 1.949176 -38.754348 2.137322 0.000000 0.000000 0.000000 20.117288 8.894962 0.197851 46.678837 5.903971 -3.681329 14.251384 28.727759 3.831772 0.000000 0.000000 0.000000 
-0.182491 0.890579 0.433533 -1.990197 -15.499321 -3.201400 1.469024 1.172409 10.651200 -1.114269 0.308439 16.101397 3.189169 5.859521 -9.152270 0.000000 0.000000 0.000000 -1.841005 3.011470 -25.552604 5.429911 -0.319585 8.038145 -1.009862 -12.154106 21.764304 0.000000 0.000000 0.000000 -2.546137 0.241560 21.154014 10.983368 -2.624697 -21.351692 -1.712720 -4.307440 25.276810 -1.095756 0.266458 -28.405863 0.000000 0.000000 0.000000 -32.036094 -2.208310 5.004720 -37.315905 -30.350002 0.854967 2.605028 -38.042383 1.958755 0.000000 0.000000 0.000000 22.001779 9.194399 -0.222293 45.291540 4.802489 -3.626848 12.128131 26.770862 3.055179 0.000000 0.000000 0.000000 
-0.207302 0.888769 0.480593 -2.902058 -16.591127 -1.813473 3.656883 0.870547 8.907874 -2.242549 1.069314 22.416570 3.003042 6.595186 -0.894504 0.000000 0.000000 0.000000 -0.735762 3.763180 -28.316604 7.356361 -0.411236 16.400677 -1.832727 -12.441564 17.947056 0.000000 0.000000 0.000000 -0.516359 -0.143254 20.045319 10.660200 -2.528777 -21.343762 -1.427890 -4.730478 25.462202 -2.650891 0.913053 -25.426832 0.000000 0.000000 0.000000 -33.814145 -1.776076 5.401617 -37.289758 -28.602991 0.013188 2.637462 -38.728338 2.075392 0.000000 0.000000 0.000000 21.874740 8.858979 -0.736235 44.491630 5.178089 -3.338758 12.069357 24.683026 2.736098 0.000000 0.000000 0.000000 
-0.232350 0.893173 0.525535 -4.043846 -18.016279 -1.910102 6.153951 0.604637 6.011163 -2.783596 2.434274 32.855783 1.026000 5.151737 13.881718 0.000000 0.000000 0.000000 1.073800 4.003641 -27.203518 8.964829 -0.533414 21.151336 -2.239311 -12.002121 13.928970 0.000000 0.000000 0.000000 1.316253 -0.418577 20.733688 10.685745 -2.651725 -20.678680 -0.643991 -4.037718 25.265601 -3.972706 1.766784 -25.191584 0.000000 0.000000 0.000000 -35.398090 -1.386700 5.247804 -38.238341 -26.302254 -0.692710 1.816324 -37.618870 2.251287 0.000000 0.000000 0.000000 21.325498 8.788367 -0.646418 43.577149 5.048176 -3.351818 13.917670 23.809377 2.974728 0.000000 0.000000 0.000000 
-0.255222 0.900137 0.565417 -4.018318 -19.303075 -2.735632 7.461121 0.430766 1.475722 -2.917565 4.423606 44.318245 0.792977 6.830262 23.643460 0.000000 0.000000 0.000000 2.752010 3.777651 -24.285500 8.341645 -0.180482 23.329682 -2.114620 -10.750801 10.757401 0.000000 0.000000 0.000000 1.055427 -0.294863 21.460224 11.281840 -2.941364 -19.814528 -0.363914 -3.673997 25.596585 -3.808033 1.648393 -24.339866 0.000000 0.000000 0.000000 -36.213681 -0.493705 4.752082 -38.414787 -25.009894 -1.167601 -0.126257 -36.683472 2.789333 0.000000 0.000000 0.000000 20.861698 9.894346 -0.042804 43.061840 6.601674 -2.815246 12.724764 23.227284 2.678685 0.000000 0.000000 0.000000 
-0.275011 0.909531 0.601561 -3.942678 -20.802915 -3.526359 8.274393 0.411751 -3.504768 -2.946186 6.360814 52.187808 3.158515 10.820483 28.660001 0.000000 0.000000 0.000000 4.059114 3.151296 -20.099146 7.550991 0.112180 22.720741 -1.454837 -8.752569 8.775529 0.000000 0.000000 0.000000 0.578704 -0.122947 21.905651 10.397079 -2.874669 -18.958374 1.003172 -2.713055 25.921582 -4.216321 1.950513 -24.522636 0.000000 0.000000 0.000000 -35.873337 -0.727578 4.847334 -39.384308 -23.153687 -1.669669 -1.616318 -35.426099 3.119725 0.000000 0.000000 0.000000 20.112312 10.154243 0.259416 43.592848 8.227510 -2.397318 12.375344 24.288090 2.740115 0.000000 0.000000 0.000000 
